<svg xmlns="http://www.w3.org/2000/svg" viewBox="0 0 100 100" width="100" height="100">
  <!-- Death Star inspired icon -->
  <defs>
    <radialGradient id="deathStarGradient" cx="0.3" cy="0.3" r="0.8">
      <stop offset="0%" style="stop-color:#e6e6e6;stop-opacity:1" />
      <stop offset="50%" style="stop-color:#cccccc;stop-opacity:1" />
      <stop offset="100%" style="stop-color:#999999;stop-opacity:1" />
    </radialGradient>
    <radialGradient id="superlaser" cx="0.5" cy="0.5" r="0.3">
      <stop offset="0%" style="stop-color:#ff4444;stop-opacity:1" />
      <stop offset="70%" style="stop-color:#cc0000;stop-opacity:1" />
      <stop offset="100%" style="stop-color:#990000;stop-opacity:1" />
    </radialGradient>
  </defs>
  
  <!-- Main sphere -->
  <circle cx="50" cy="50" r="45" fill="url(#deathStarGradient)" stroke="#666" stroke-width="1"/>
  
  <!-- Surface details -->
  <circle cx="30" cy="25" r="3" fill="#aaa" opacity="0.7"/>
  <circle cx="70" cy="30" r="2" fill="#aaa" opacity="0.7"/>
  <circle cx="25" cy="60" r="2.5" fill="#aaa" opacity="0.7"/>
  <circle cx="75" cy="70" r="2" fill="#aaa" opacity="0.7"/>
  
  <!-- Grid lines -->
  <line x1="10" y1="35" x2="90" y2="35" stroke="#bbb" stroke-width="0.5" opacity="0.6"/>
  <line x1="10" y1="65" x2="90" y2="65" stroke="#bbb" stroke-width="0.5" opacity="0.6"/>
  <line x1="35" y1="10" x2="35" y2="90" stroke="#bbb" stroke-width="0.5" opacity="0.6"/>
  <line x1="65" y1="10" x2="65" y2="90" stroke="#bbb" stroke-width="0.5" opacity="0.6"/>
  
  <!-- Superlaser dish -->
  <circle cx="65" cy="35" r="8" fill="url(#superlaser)" stroke="#660000" stroke-width="1"/>
  <circle cx="65" cy="35" r="4" fill="#ff6666" opacity="0.8"/>
  <circle cx="65" cy="35" r="2" fill="#ffaaaa" opacity="0.9"/>
  
  <!-- Shadow/depth -->
  <path d="M 50 5 A 45 45 0 0 1 50 95 A 45 45 0 0 0 50 5" fill="#000" opacity="0.2"/>
</svg>
